PathFileType	4	(X/Y/Z)	s10c0202.trc
DataRate	CameraRate	NumFrames	NumMarkers	Units	OrigDataRate	OrigDataStartFrame	OrigNumFrames
200	200	5	50	mm	200	1000	2000
Frame#	Time	racr			lacr			c7			jug			rlel			rdr			llel			ldr			s2			lic			ric			lasi			rasi			rpsi			lpsi			rgt			lgt			rth1			rth2			rth3			rth4			rlfc			rmfc			rsh1			rsh2			rsh3			rsh4			rlmal			rmmal			rcal			rtoe			rmt5			lth1			lth2			lth4			lth3			llfc			lmfc			llmal			lmmal			lcal			lmt5			lsh1			lsh2			lsh3			lsh4			ltoe			SBIKE			LBIKE			RBIKE			
		X1	Y1	Z1	X2	Y2	Z2	X3	Y3	Z3	X4	Y4	Z4	X5	Y5	Z5	X6	Y6	Z6	X7	Y7	Z7	X8	Y8	Z8	X9	Y9	Z9	X10	Y10	Z10	X11	Y11	Z11	X12	Y12	Z12	X13	Y13	Z13	X14	Y14	Z14	X15	Y15	Z15	X16	Y16	Z16	X17	Y17	Z17	X18	Y18	Z18	X19	Y19	Z19	X20	Y20	Z20	X21	Y21	Z21	X22	Y22	Z22	X23	Y23	Z23	X24	Y24	Z24	X25	Y25	Z25	X26	Y26	Z26	X27	Y27	Z27	X28	Y28	Z28	X29	Y29	Z29	X30	Y30	Z30	X31	Y31	Z31	X32	Y32	Z32	X33	Y33	Z33	X34	Y34	Z34	X35	Y35	Z35	X36	Y36	Z36	X37	Y37	Z37	X38	Y38	Z38	X39	Y39	Z39	X40	Y40	Z40	X41	Y41	Z41	X42	Y42	Z42	X43	Y43	Z43	X44	Y44	Z44	X45	Y45	Z45	X46	Y46	Z46	X47	Y47	Z47	X48	Y48	Z48	X49	Y49	Z49	X50	Y50	Z50	
1000	5.0000	362.163965	1237.221902	3.589224	472.825121	1224.235488	-311.760060	386.750117	1313.260495	-190.402923	383.279590	1165.746092	-167.600104	373.564889	968.105168	47.009049	579.642164	909.144260	-29.707210	444.491649	1031.352861	-515.340989	596.144097	904.704521	-437.239735	-108.850666	1101.841841	-248.559637	63.836202	1096.144675	-399.291872	41.729296	1136.430470	-115.339393	84.184875	1015.714914	-364.144025	70.626367	1059.782634	-107.991892	-74.693534	1168.826556	-204.109383	-56.322408	1163.484048	-318.114472	-27.789145	1048.280268	-53.273370	-51.954231	964.656344	-423.256695	88.946764	950.608906	-30.344430	174.649067	932.383247	-44.930520	238.655728	875.514129	-43.876186	188.019576	964.286647	-60.001171	341.540157	815.497368	-68.113416	327.525134	793.601376	-184.139581	287.981709	711.911736	-37.920755	283.645712	623.575739	-48.787796	238.275590	550.122009	-48.588610	311.638813	617.436177	-75.435241	205.555000	450.309859	-60.291444	226.142951	467.078546	-141.143947	151.457194	423.709984	-104.371901	393.502971	414.165232	-103.921565	313.924696	382.147935	-40.442478	27.679869	856.395381	-433.306440	104.334906	815.532189	-429.009709	129.183427	842.377018	-427.810564	150.966798	740.386187	-417.827824	226.066126	657.711339	-399.959343	237.129377	657.974436	-279.513939	-46.578340	393.368797	-380.342419	-25.863630	382.551059	-302.170309	-105.588483	391.364126	-332.535054	7.421743	255.888616	-399.702352	126.252580	582.842588	-424.433722	91.482577	503.937990	-405.107697	19.111303	452.793380	-397.575326	116.634979	488.794637	-381.084032	93.234825	233.854684	-344.498408	-217.791142	832.143269	-214.857898	-103.984006	80.386303	-418.375522	-103.997488	80.467169	-18.398938	
1001	5.0050	363.781188	1237.984116	2.326671	470.799883	1224.746896	-312.769506	386.967582	1313.176369	-191.674135	383.299374	1165.568627	-168.105928	374.357523	969.126329	46.430399	579.954032	909.173567	-29.565511	445.152967	1031.761961	-515.880295	596.421738	904.738021	-437.637603	-109.305017	1100.578442	-249.261782	64.017481	1095.231673	-398.672090	41.600442	1135.667976	-114.721059	84.443910	1015.035230	-362.996776	70.534583	1058.974588	-107.300719	-75.542789	1167.486511	-203.937443	-56.354721	1162.455302	-318.212627	-29.064596	1044.493635	-54.186023	-50.205133	964.178144	-423.628683	87.496263	944.679912	-29.507239	173.061510	924.406489	-42.998172	235.534806	865.705392	-43.013617	187.610316	956.477778	-56.869256	336.669360	802.304981	-66.158352	324.847117	782.073385	-181.286195	284.436160	697.665595	-36.335337	282.118857	609.250429	-48.173033	238.234430	534.993004	-48.719354	310.229828	604.036425	-74.833249	207.691413	438.009950	-60.038788	229.085803	455.813290	-141.123225	153.605628	411.251160	-104.161833	395.990923	404.451093	-103.782311	316.796934	371.281009	-40.367655	30.748675	857.110448	-433.352886	107.856109	817.129082	-428.565207	132.390244	844.272694	-427.301673	155.184234	742.405166	-416.623232	231.845761	660.769244	-398.680609	240.284373	662.079556	-276.998882	-47.207833	404.086391	-380.558678	-26.825398	393.007822	-302.346199	-106.757528	403.008641	-332.728052	4.433859	265.894890	-399.755928	131.590140	589.033058	-424.183665	94.141472	510.881314	-404.269629	20.062197	462.063339	-397.822140	118.629501	495.260293	-379.932054	89.946201	242.786453	-344.427014	-217.973668	832.104262	-214.207851	-103.978201	80.392593	-418.391582	-104.011911	80.469768	-18.399811	
1002	5.0100	365.488096	1238.630298	1.161912	468.526575	1225.647969	-314.247948	387.000641	1313.382080	-192.456978	383.500161	1165.444621	-168.930227	375.296837	970.153277	45.906820	580.327645	909.257067	-29.525015	445.743066	1032.179425	-516.676251	596.613187	904.807223	-437.977251	-109.752531	1099.048673	-249.770213	64.104505	1094.304387	-397.894622	41.555922	1134.789045	-113.938568	84.326336	1013.808818	-360.735068	70.465742	1057.921860	-106.350293	-76.446306	1165.889296	-203.557326	-56.511099	1161.181415	-318.042106	-30.324804	1039.860829	-54.816371	-48.315497	963.363898	-423.758999	86.159917	938.295358	-28.292747	171.518311	916.967737	-41.822718	232.350525	855.759089	-42.168448	186.951689	947.572871	-54.992266	331.326683	789.179934	-64.276696	321.878554	771.011865	-178.637227	280.163745	685.511849	-34.062599	280.235308	597.128087	-46.818352	238.474943	521.962640	-48.215142	309.134902	593.082523	-72.911234	209.545640	425.802754	-59.558617	230.787970	443.569161	-140.882376	156.012262	398.816705	-104.045432	398.130273	394.309110	-103.747846	319.305595	360.349396	-40.249917	34.106465	857.902948	-433.504480	111.632530	818.636613	-427.905473	135.749593	845.750441	-425.732825	160.301845	745.040504	-416.161535	237.525400	663.849217	-397.351329	242.967886	665.601300	-274.780985	-47.294003	414.911256	-380.635969	-27.222943	403.552231	-302.393514	-107.240211	414.720147	-332.860037	2.083114	276.256194	-399.803355	136.594666	595.382258	-423.545415	97.123807	518.140021	-403.604466	21.794461	471.222801	-397.651573	120.928160	502.423301	-379.324893	87.265641	251.914695	-344.326133	-217.993904	832.078443	-214.207937	-103.983649	80.374252	-418.367037	-104.001584	80.483531	-18.390238	
1003	5.0150	367.904502	1239.006194	-0.405431	466.038652	1226.960387	-316.368965	387.126797	1313.396663	-193.703269	383.899463	1164.979616	-169.298559	376.395675	971.188379	45.375489	580.725144	909.326678	-29.514783	446.219587	1032.644126	-517.710237	596.728570	904.926906	-438.276071	-110.268386	1097.405204	-250.295599	64.212000	1093.273744	-397.026272	41.581200	1133.764938	-113.128070	84.557317	1012.996918	-359.157611	70.291783	1056.823905	-105.221998	-75.963632	1164.346891	-200.608694	-57.534530	1159.438655	-315.816697	-31.083286	1035.161172	-55.234709	-46.171166	962.443665	-423.859894	84.894092	932.139228	-27.186864	169.701784	907.823145	-39.352853	229.038990	845.750630	-41.686120	186.228342	939.199303	-51.880693	325.719766	776.739663	-62.783046	318.469862	761.355564	-176.401337	275.636759	675.831994	-32.042074	277.830381	587.520066	-45.115488	237.847034	511.341568	-47.141265	307.282835	584.116591	-70.457836	210.927591	413.797822	-59.100093	232.576660	431.848918	-140.535679	157.689646	386.895392	-103.754965	399.852247	383.781349	-103.685260	321.340265	349.175156	-40.175714	37.721235	858.571903	-433.699172	115.612140	820.360099	-427.083419	139.460881	847.790677	-424.917961	165.024127	747.292260	-414.664352	243.294120	667.000962	-396.023755	244.991308	669.449049	-272.992389	-46.671407	426.010079	-380.663339	-26.905408	414.327324	-302.401005	-106.934505	426.785247	-333.065734	0.441804	286.648125	-399.834731	141.131007	601.855085	-422.324469	100.493116	525.346636	-403.264967	23.945598	480.534514	-397.511365	123.378008	509.294159	-377.800590	85.251011	261.352923	-344.302578	-217.994528	832.080294	-214.161997	-103.935002	80.402569	-418.326169	-103.992960	80.499758	-18.363204	
1004	5.0200	369.961386	1239.647459	-1.581349	463.350784	1228.608694	-318.940327	387.108584	1313.611889	-195.081321	384.332250	1164.826059	-170.837242	377.543799	972.269324	44.707811	581.089715	909.370158	-29.546874	446.675470	1033.175515	-518.969449	596.751417	905.005830	-438.412398	-110.937615	1095.290921	-250.106143	64.235518	1092.276907	-396.120899	42.390926	1133.596511	-110.905168	84.742796	1012.028523	-357.442077	70.017271	1055.422820	-103.470625	-76.037322	1158.972148	-206.571924	-58.009708	1157.659183	-315.122761	-32.297296	1031.020799	-54.757986	-43.843156	961.408754	-423.938640	83.332697	925.271414	-26.065868	168.447754	899.069122	-37.790021	225.718942	835.771495	-41.313604	185.113600	930.677748	-48.979110	320.561436	766.221171	-61.794341	314.230668	753.193268	-175.078640	270.879022	666.149357	-30.823407	274.991538	577.956651	-43.554461	236.504403	500.857556	-46.183936	304.904359	574.969823	-68.395606	211.986864	401.984207	-58.611603	233.786026	420.215676	-139.973127	158.966193	375.485105	-103.224148	401.007449	372.935649	-103.457191	322.645448	337.965824	-40.061087	41.575115	859.181882	-433.898704	119.886468	822.173431	-426.063415	143.261907	849.916423	-423.135416	170.050982	749.810842	-413.134008	249.057703	670.451810	-394.844283	248.620624	672.795404	-270.864656	-45.386398	437.103251	-380.741772	-25.926095	425.166952	-302.451086	-105.968527	438.876751	-333.308613	-0.597642	297.271442	-399.806690	146.387936	608.790927	-421.576888	104.152341	533.129600	-402.848430	26.902605	489.613042	-397.113950	126.548075	516.436681	-376.939672	83.922664	270.876995	-344.206015	-217.980538	832.079730	-214.107588	-103.930575	80.390079	-418.309158	-103.947046	80.471299	-18.361139	
